<svg width="95" height="39" viewBox="0 0 95 39" fill="none" xmlns="http://www.w3.org/2000/svg">
<path d="M18.8203 25.4297V30H4.50391V25.4297H18.8203ZM6.39844 1.5625V30H0.539062V1.5625H6.39844ZM27.7656 8.86719V30H22.1211V8.86719H27.7656ZM21.7695 3.35938C21.7695 2.53906 22.056 1.86198 22.6289 1.32812C23.2018 0.794271 23.9701 0.527344 24.9336 0.527344C25.8841 0.527344 26.6458 0.794271 27.2188 1.32812C27.8047 1.86198 28.0977 2.53906 28.0977 3.35938C28.0977 4.17969 27.8047 4.85677 27.2188 5.39062C26.6458 5.92448 25.8841 6.19141 24.9336 6.19141C23.9701 6.19141 23.2018 5.92448 22.6289 5.39062C22.056 4.85677 21.7695 4.17969 21.7695 3.35938ZM38.0391 12.9297V38.125H32.4141V8.86719H37.6289L38.0391 12.9297ZM51.418 19.1992V19.6094C51.418 21.1458 51.2357 22.5716 50.8711 23.8867C50.5195 25.2018 49.9987 26.3477 49.3086 27.3242C48.6185 28.2878 47.7591 29.043 46.7305 29.5898C45.7148 30.1237 44.543 30.3906 43.2148 30.3906C41.9258 30.3906 40.806 30.1302 39.8555 29.6094C38.9049 29.0885 38.1042 28.3594 37.4531 27.4219C36.8151 26.4714 36.3008 25.3711 35.9102 24.1211C35.5195 22.8711 35.2201 21.5299 35.0117 20.0977V19.0234C35.2201 17.487 35.5195 16.0807 35.9102 14.8047C36.3008 13.5156 36.8151 12.4023 37.4531 11.4648C38.1042 10.5143 38.8984 9.77865 39.8359 9.25781C40.7865 8.73698 41.8997 8.47656 43.1758 8.47656C44.5169 8.47656 45.6953 8.73047 46.7109 9.23828C47.7396 9.74609 48.599 10.4753 49.2891 11.4258C49.9922 12.3763 50.5195 13.5091 50.8711 14.8242C51.2357 16.1393 51.418 17.5977 51.418 19.1992ZM45.7734 19.6094V19.1992C45.7734 18.3008 45.6953 17.474 45.5391 16.7188C45.3958 15.9505 45.1615 15.2799 44.8359 14.707C44.5234 14.1341 44.1068 13.6914 43.5859 13.3789C43.0781 13.0534 42.4596 12.8906 41.7305 12.8906C40.9622 12.8906 40.3047 13.0143 39.7578 13.2617C39.224 13.5091 38.7878 13.8672 38.4492 14.3359C38.1107 14.8047 37.8568 15.3646 37.6875 16.0156C37.5182 16.6667 37.4141 17.4023 37.375 18.2227V20.9375C37.4401 21.901 37.6224 22.7669 37.9219 23.5352C38.2214 24.2904 38.6836 24.8893 39.3086 25.332C39.9336 25.7747 40.7539 25.9961 41.7695 25.9961C42.5117 25.9961 43.1367 25.8333 43.6445 25.5078C44.1523 25.1693 44.5625 24.707 44.875 24.1211C45.2005 23.5352 45.4284 22.8581 45.5586 22.0898C45.7018 21.3216 45.7734 20.4948 45.7734 19.6094ZM64.6406 30.3906C63 30.3906 61.5286 30.1302 60.2266 29.6094C58.9245 29.0755 57.8177 28.3398 56.9062 27.4023C56.0078 26.4648 55.3177 25.3776 54.8359 24.1406C54.3542 22.8906 54.1133 21.5625 54.1133 20.1562V19.375C54.1133 17.7734 54.3411 16.3086 54.7969 14.9805C55.2526 13.6523 55.9036 12.5 56.75 11.5234C57.6094 10.5469 58.651 9.79818 59.875 9.27734C61.099 8.74349 62.4792 8.47656 64.0156 8.47656C65.513 8.47656 66.8411 8.72396 68 9.21875C69.1589 9.71354 70.1289 10.4167 70.9102 11.3281C71.7044 12.2396 72.3034 13.3333 72.707 14.6094C73.1107 15.8724 73.3125 17.2786 73.3125 18.8281V21.1719H56.5156V17.4219H67.7852V16.9922C67.7852 16.2109 67.6419 15.5143 67.3555 14.9023C67.082 14.2773 66.6654 13.7826 66.1055 13.418C65.5456 13.0534 64.8294 12.8711 63.957 12.8711C63.2148 12.8711 62.5768 13.0339 62.043 13.3594C61.5091 13.6849 61.0729 14.1406 60.7344 14.7266C60.4089 15.3125 60.1615 16.0026 59.9922 16.7969C59.8359 17.5781 59.7578 18.4375 59.7578 19.375V20.1562C59.7578 21.0026 59.875 21.7839 60.1094 22.5C60.3568 23.2161 60.7018 23.8346 61.1445 24.3555C61.6003 24.8763 62.1471 25.2799 62.7852 25.5664C63.4362 25.8529 64.1719 25.9961 64.9922 25.9961C66.0078 25.9961 66.9518 25.8008 67.8242 25.4102C68.7096 25.0065 69.4714 24.401 70.1094 23.5938L72.8438 26.5625C72.401 27.2005 71.7956 27.8125 71.0273 28.3984C70.2721 28.9844 69.3607 29.4661 68.293 29.8438C67.2253 30.2083 66.0078 30.3906 64.6406 30.3906ZM81.0469 8.86719L84.543 15.293L88.1367 8.86719H94.1328L88.1562 19.1992L94.4062 30H88.3906L84.582 23.2031L80.7734 30H74.7578L81.0078 19.1992L75.0312 8.86719H81.0469Z" fill="#F7E8F5"/>
</svg>
